<svg width="27" height="28" viewBox="0 0 27 28" fill="none" xmlns="http://www.w3.org/2000/svg">
<path d="M26 27.1971C26.4142 27.1971 26.75 26.8613 26.75 26.4471C26.75 26.0329 26.4142 25.6971 26 25.6971V27.1971ZM1 25.6971C0.585786 25.6971 0.25 26.0329 0.25 26.4471C0.25 26.8613 0.585786 27.1971 1 27.1971V25.6971ZM0.511933 11.1451C0.197426 11.4147 0.160983 11.8881 0.430534 12.2026C0.700086 12.5172 1.17356 12.5536 1.48807 12.284L0.511933 11.1451ZM6.56682 7.93125C6.88132 7.66169 6.91777 7.18822 6.64822 6.87371C6.37866 6.55921 5.90519 6.52276 5.59068 6.79232L6.56682 7.93125ZM25.5119 12.284C25.8264 12.5536 26.2999 12.5172 26.5695 12.2026C26.839 11.8881 26.8026 11.4147 26.4881 11.1451L25.5119 12.284ZM15.8425 3.00898L15.3544 3.57844L15.3544 3.57845L15.8425 3.00898ZM13.5 2.12861V1.37861V2.12861ZM11.1575 3.00898L11.6453 3.57865L11.6456 3.57844L11.1575 3.00898ZM9.69217 3.27639C9.37755 3.54581 9.34091 4.01927 9.61033 4.33389C9.87976 4.64851 10.3532 4.68515 10.6678 4.41573L9.69217 3.27639ZM17.125 4.34831C17.125 4.76252 17.4608 5.09831 17.875 5.09831C18.2892 5.09831 18.625 4.76252 18.625 4.34831H17.125ZM18.5 1V1.75V1ZM21.5 8.36627C21.5 8.78049 21.8358 9.11627 22.25 9.11627C22.6642 9.11627 23 8.78049 23 8.36627H21.5ZM2.75 26.4471C2.75 26.8613 3.08579 27.1971 3.5 27.1971C3.91421 27.1971 4.25 26.8613 4.25 26.4471H2.75ZM4.25 9.70559C4.25 9.29138 3.91421 8.95559 3.5 8.95559C3.08579 8.95559 2.75 9.29138 2.75 9.70559H4.25ZM24.25 9.70559C24.25 9.29138 23.9142 8.95559 23.5 8.95559C23.0858 8.95559 22.75 9.29138 22.75 9.70559H24.25ZM22.75 15.0629C22.75 15.4771 23.0858 15.8129 23.5 15.8129C23.9142 15.8129 24.25 15.4771 24.25 15.0629H22.75ZM22.75 26.4471C22.75 26.8613 23.0858 27.1971 23.5 27.1971C23.9142 27.1971 24.25 26.8613 24.25 26.4471H22.75ZM24.25 20.4202C24.25 20.006 23.9142 19.6702 23.5 19.6702C23.0858 19.6702 22.75 20.006 22.75 20.4202H24.25ZM16.5 26.4471C16.5 26.8613 16.8358 27.1971 17.25 27.1971C17.6642 27.1971 18 26.8613 18 26.4471H16.5ZM16.7 16.3218L16.1505 16.8323L16.1523 16.8342L16.7 16.3218ZM9.75112 15.8107C9.46884 16.1139 9.48575 16.5884 9.78889 16.8707C10.092 17.153 10.5666 17.1361 10.8489 16.833L9.75112 15.8107ZM9 26.4471C9 26.8613 9.33579 27.1971 9.75 27.1971C10.1642 27.1971 10.5 26.8613 10.5 26.4471H9ZM10.5 19.7505C10.5 19.3363 10.1642 19.0005 9.75 19.0005C9.33579 19.0005 9 19.3363 9 19.7505H10.5ZM16 9.70559H15.25H16ZM13.5 7.02695V6.27695V7.02695ZM26 25.6971H1V27.1971H26V25.6971ZM1.48807 12.284L6.56682 7.93125L5.59068 6.79232L0.511933 11.1451L1.48807 12.284ZM26.4881 11.1451L16.3306 2.43952L15.3544 3.57845L25.5119 12.284L26.4881 11.1451ZM16.3306 2.43953C15.534 1.75676 14.536 1.37861 13.5 1.37861V2.87861C14.1669 2.87861 14.8212 3.12142 15.3544 3.57844L16.3306 2.43953ZM13.5 1.37861C12.464 1.37861 11.466 1.75676 10.6694 2.43953L11.6456 3.57844C12.1788 3.12142 12.8331 2.87861 13.5 2.87861V1.37861ZM10.6697 2.43932L9.69217 3.27639L10.6678 4.41573L11.6453 3.57865L10.6697 2.43932ZM18.625 4.34831V1.66966H17.125V4.34831H18.625ZM18.625 1.66966C18.625 1.67334 18.6244 1.67804 18.6221 1.68383C18.6199 1.68962 18.6153 1.69825 18.6064 1.70787L17.5098 0.684408C17.2582 0.953989 17.125 1.30921 17.125 1.66966H18.625ZM18.6064 1.70787C18.5875 1.72803 18.5505 1.75 18.5 1.75V0.25C18.118 0.25 17.763 0.413079 17.5098 0.684408L18.6064 1.70787ZM18.5 1.75H21.625V0.25H18.5V1.75ZM21.625 1.75C21.5745 1.75 21.5375 1.72803 21.5186 1.70787L22.6152 0.684408C22.362 0.413079 22.007 0.25 21.625 0.25V1.75ZM21.5186 1.70787C21.5097 1.69825 21.5051 1.68962 21.5029 1.68383C21.5006 1.67804 21.5 1.67334 21.5 1.66966H23C23 1.30921 22.8668 0.953989 22.6152 0.684408L21.5186 1.70787ZM21.5 1.66966V8.36627H23V1.66966H21.5ZM4.25 26.4471V9.70559H2.75V26.4471H4.25ZM22.75 9.70559V15.0629H24.25V9.70559H22.75ZM24.25 26.4471V20.4202H22.75V26.4471H24.25ZM18 26.4471V19.7505H16.5V26.4471H18ZM18 19.7505C18 18.8235 18.0014 18.0576 17.9254 17.453C17.8473 16.8317 17.6762 16.2676 17.2477 15.8095L16.1523 16.8342C16.2738 16.9641 16.3777 17.1674 16.4371 17.64C16.4986 18.1293 16.5 18.7838 16.5 19.7505H18ZM17.2495 15.8114C16.8156 15.3444 16.2688 15.151 15.6651 15.0639C15.0886 14.9807 14.3616 14.9825 13.5 14.9825V16.4825C14.4071 16.4825 15.0064 16.4844 15.4509 16.5485C15.8681 16.6087 16.0369 16.71 16.1505 16.8323L17.2495 15.8114ZM13.5 14.9825C12.6384 14.9825 11.9117 14.9807 11.3353 15.0639C10.7316 15.1511 10.1853 15.3445 9.75112 15.8107L10.8489 16.833C10.9634 16.7099 11.1328 16.6087 11.5497 16.5485C11.994 16.4844 12.5929 16.4825 13.5 16.4825V14.9825ZM10.5 26.4471V19.7505H9V26.4471H10.5ZM15.25 9.70559C15.25 10.2332 15.0539 10.7296 14.7195 11.088L15.8161 12.1114C16.4193 11.4651 16.75 10.5989 16.75 9.70559H15.25ZM14.7195 11.088C14.3867 11.4446 13.9468 11.6342 13.5 11.6342V13.1342C14.3793 13.1342 15.2112 12.7595 15.8161 12.1114L14.7195 11.088ZM13.5 11.6342C13.0532 11.6342 12.6133 11.4446 12.2805 11.088L11.1839 12.1114C11.7888 12.7595 12.6207 13.1342 13.5 13.1342V11.6342ZM12.2805 11.088C11.9461 10.7296 11.75 10.2332 11.75 9.70559H10.25C10.25 10.5989 10.5807 11.4651 11.1839 12.1114L12.2805 11.088ZM11.75 9.70559C11.75 9.17802 11.9461 8.68159 12.2805 8.32324L11.1839 7.29978C10.5807 7.94611 10.25 8.81232 10.25 9.70559H11.75ZM12.2805 8.32324C12.6133 7.96664 13.0532 7.77695 13.5 7.77695V6.27695C12.6207 6.27695 11.7888 6.65169 11.1839 7.29978L12.2805 8.32324ZM13.5 7.77695C13.9468 7.77695 14.3867 7.96664 14.7195 8.32324L15.8161 7.29978C15.2112 6.65169 14.3793 6.27695 13.5 6.27695V7.77695ZM14.7195 8.32324C15.0539 8.68159 15.25 9.17802 15.25 9.70559H16.75C16.75 8.81232 16.4193 7.94611 15.8161 7.29978L14.7195 8.32324Z" fill="#B83FC2"/>
</svg>
