<svg width="25" height="28" viewBox="0 0 25 28" fill="none" xmlns="http://www.w3.org/2000/svg">
<path d="M12.5 9.66333L12.4975 9.66334C12.2846 9.66442 12.1213 9.59403 11.9755 9.4378C11.828 9.27975 11.7494 9.08677 11.75 8.82512C11.7506 8.56176 11.8298 8.36828 11.9761 8.21094C12.1198 8.05647 12.2834 7.98469 12.5 7.98469C12.7166 7.98469 12.8802 8.05647 13.0239 8.21094C13.1702 8.36828 13.2494 8.56176 13.25 8.82511C13.2506 9.08728 13.1721 9.27964 13.0257 9.43646C12.881 9.5915 12.7167 9.66334 12.5 9.66333ZM12.5005 27.0745H12.5C10.841 27.0745 9.28784 26.7375 7.83494 26.0653C6.3717 25.3884 5.10183 24.4722 4.02166 23.3157C2.94146 22.1592 2.08324 20.7951 1.44888 19.2181C0.818143 17.65 0.500808 15.9725 0.500002 14.1811C0.499196 12.3899 0.816477 10.7127 1.44871 9.14495C2.08482 7.5676 2.94319 6.20328 4.02191 5.04662C5.10025 3.89037 6.36993 2.97428 7.83475 2.29735C9.2895 1.62507 10.8427 1.28809 12.5 1.28809C14.1573 1.28809 15.7105 1.62507 17.1652 2.29735C18.6301 2.97428 19.8997 3.89037 20.9781 5.04662C22.0568 6.20333 22.9157 7.56772 23.5526 9.14515C24.1856 10.7127 24.5024 12.3897 24.5 14.1806C24.4976 15.9724 24.1802 17.6502 23.5509 19.2185C22.9183 20.7952 22.0603 22.159 20.9786 23.3154C19.8965 24.4723 18.6264 25.389 17.1646 26.0669C15.7138 26.7397 14.161 27.0762 12.5005 27.0745ZM13.25 13.342V20.3779H11.75V13.342H13.25ZM12.5 25.3959C15.4329 25.3959 17.9291 24.2984 19.9593 22.1231C21.9881 19.9493 23 17.2917 23 14.1813C23 11.0709 21.9881 8.41333 19.9593 6.2395C17.9291 4.0642 15.4329 2.96673 12.5 2.96673C9.56706 2.96673 7.07093 4.0642 5.04072 6.2395C3.01186 8.41333 2 11.0709 2 14.1813C2 17.2917 3.01186 19.9493 5.04072 22.1231C7.07093 24.2984 9.56706 25.3959 12.5 25.3959Z" stroke="#B83FC2"/>
</svg>
