<svg width="25" height="28" viewBox="0 0 25 28" fill="none" xmlns="http://www.w3.org/2000/svg">
<mask id="path-1-inside-1_49_191" fill="white">
<path d="M13.0674 11.0225V7.79293H11.6749L9.53368 17.1763L7.39243 7.79293H6V17.3466M8.7773 18.5531L9.53368 17.1763L8.7773 18.5531ZM12.003 16.7725L12.3545 19.1567H13.3315L15.4727 9.77339L17.6139 19.1567H18.5905L20 9.60311M16.2291 8.39619L15.4727 9.77339L16.2291 8.39619Z"/>
<path d="M25 13.6859C25 21.0828 19.4036 27.0792 12.5 27.0792C5.59644 27.0792 0 21.0828 0 13.6859C0 6.28907 5.59644 0.292725 12.5 0.292725C19.4036 0.292725 25 6.28907 25 13.6859Z"/>
</mask>
<path d="M12.0674 11.0225C12.0674 11.5748 12.5151 12.0225 13.0674 12.0225C13.6196 12.0225 14.0674 11.5748 14.0674 11.0225H12.0674ZM13.0674 7.79293H14.0674C14.0674 7.24064 13.6196 6.79293 13.0674 6.79293V7.79293ZM11.6749 7.79293V6.79293C11.2083 6.79293 10.8038 7.11557 10.7 7.57045L11.6749 7.79293ZM9.53368 17.1763L10.4101 17.6578C10.4548 17.5764 10.488 17.4893 10.5086 17.3988L9.53368 17.1763ZM7.39243 7.79293L8.36737 7.57045C8.26357 7.11557 7.859 6.79293 7.39243 6.79293V7.79293ZM6 7.79293V6.79293C5.44772 6.79293 5 7.24064 5 7.79293H6ZM5 17.3466C5 17.8988 5.44772 18.3466 6 18.3466C6.55228 18.3466 7 17.8988 7 17.3466H5ZM7.90085 18.0716C7.63493 18.5556 7.81175 19.1636 8.2958 19.4295C8.77985 19.6955 9.38782 19.5186 9.65374 19.0346L7.90085 18.0716ZM12.9923 16.6266C12.9117 16.0803 12.4035 15.7026 11.8571 15.7832C11.3107 15.8637 10.9331 16.372 11.0137 16.9184L12.9923 16.6266ZM12.3545 19.1567L11.3652 19.3026C11.4375 19.7932 11.8585 20.1567 12.3545 20.1567V19.1567ZM13.3315 19.1567V20.1567C13.798 20.1567 14.2026 19.8341 14.3064 19.3792L13.3315 19.1567ZM15.4727 9.77339L14.5962 9.292C14.5515 9.37332 14.5184 9.46046 14.4978 9.55091L15.4727 9.77339ZM17.6139 19.1567L16.639 19.3792C16.7428 19.8341 17.1474 20.1567 17.6139 20.1567V19.1567ZM18.5905 19.1567V20.1567C19.0865 20.1567 19.5075 19.7933 19.5798 19.3027L18.5905 19.1567ZM20.9893 9.74906C21.0699 9.20269 20.6923 8.69443 20.146 8.61382C19.5996 8.53321 19.0913 8.91079 19.0107 9.45716L20.9893 9.74906ZM17.1056 8.87758C17.3715 8.3935 17.1946 7.78555 16.7105 7.51968C16.2264 7.25382 15.6184 7.43072 15.3526 7.9148L17.1056 8.87758ZM14.0674 11.0225V7.79293H12.0674V11.0225H14.0674ZM13.0674 6.79293H11.6749V8.79293H13.0674V6.79293ZM10.7 7.57045L8.55874 16.9538L10.5086 17.3988L12.6499 8.0154L10.7 7.57045ZM10.5086 16.9538L8.36737 7.57045L6.41749 8.0154L8.55874 17.3988L10.5086 16.9538ZM7.39243 6.79293H6V8.79293H7.39243V6.79293ZM5 7.79293V17.3466H7V7.79293H5ZM9.65374 19.0346L10.4101 17.6578L8.65723 16.6948L7.90085 18.0716L9.65374 19.0346ZM11.0137 16.9184L11.3652 19.3026L13.3438 19.0109L12.9923 16.6266L11.0137 16.9184ZM12.3545 20.1567H13.3315V18.1567H12.3545V20.1567ZM14.3064 19.3792L16.4476 9.99586L14.4978 9.55091L12.3565 18.9343L14.3064 19.3792ZM14.4978 9.99586L16.639 19.3792L18.5889 18.9343L16.4476 9.55091L14.4978 9.99586ZM17.6139 20.1567H18.5905V18.1567H17.6139V20.1567ZM19.5798 19.3027L20.9893 9.74906L19.0107 9.45716L17.6012 19.0108L19.5798 19.3027ZM15.3526 7.9148L14.5962 9.292L16.3492 10.2548L17.1056 8.87758L15.3526 7.9148ZM24 13.6859C24 20.5967 18.7874 26.0792 12.5 26.0792V28.0792C20.0197 28.0792 26 21.569 26 13.6859H24ZM12.5 26.0792C6.21261 26.0792 1 20.5967 1 13.6859H-1C-1 21.569 4.98027 28.0792 12.5 28.0792V26.0792ZM1 13.6859C1 6.77523 6.21261 1.29272 12.5 1.29272V-0.707275C4.98027 -0.707275 -1 5.80292 -1 13.6859H1ZM12.5 1.29272C18.7874 1.29272 24 6.77523 24 13.6859H26C26 5.80292 20.0197 -0.707275 12.5 -0.707275V1.29272Z" fill="#B83FC2" mask="url(#path-1-inside-1_49_191)"/>
</svg>
