<svg width="25" height="32" viewBox="0 0 25 32" fill="none" xmlns="http://www.w3.org/2000/svg">
<path d="M12.3421 31.1786V26.9247V26.4517L11.8699 26.4255C5.57098 26.0752 0.5 20.4572 0.5 13.5456C0.5 6.40122 5.91335 0.652344 12.5 0.652344C19.0867 0.652344 24.5 6.40122 24.5 13.5456C24.5 20.3175 20.0963 27.1771 13.4944 30.5829L13.4941 30.5831L12.3421 31.1786ZM12.5 24.6192H13.9737V27.3617V28.3041L14.754 27.7758C19.6592 24.4549 22.8684 18.9806 22.8684 13.5456C22.8684 7.46586 18.2555 2.47197 12.5 2.47197C6.74455 2.47197 2.13158 7.46586 2.13158 13.5456C2.13158 19.6253 6.74455 24.6192 12.5 24.6192ZM13.3158 19.6848V21.5044H11.6842V19.6848H13.3158ZM13.3462 16.5701H11.702C11.7617 15.7602 11.966 15.1568 12.2364 14.6781C12.5629 14.0997 13.0031 13.6717 13.4813 13.266C13.5898 13.174 13.7032 13.0818 13.8188 12.9877C14.6668 12.298 15.6316 11.5132 15.6316 10.021C15.6316 8.22716 14.2555 6.70141 12.5 6.70141C10.9103 6.70141 9.63172 7.95259 9.4044 9.52103H7.75892C7.99271 6.88976 10.053 4.88178 12.5 4.88178C15.0998 4.88178 17.2632 7.14842 17.2632 10.021C17.2632 11.5505 16.4339 12.3882 15.4475 13.313C15.4112 13.347 15.3747 13.3811 15.3379 13.4155C14.4928 14.2054 13.5279 15.1071 13.3462 16.5701Z" stroke="#B83FC2"/>
</svg>
