<svg width="62" height="91" viewBox="0 0 62 91" fill="none" xmlns="http://www.w3.org/2000/svg">
<path d="M22.72 66.72C22.1227 66.72 21.4187 66.2293 20.608 65.248C19.84 64.224 19.456 63.1787 19.456 62.112C19.456 61.0027 20.8427 55.072 23.616 44.32C26.3893 33.568 27.776 26.8267 27.776 24.096C27.776 23.328 27.8613 22.7947 28.032 22.496C28.2027 22.1973 28.5867 22.048 29.184 22.048C29.824 22.048 30.5707 22.7093 31.424 24.032C32.2773 25.3547 32.704 26.8693 32.704 28.576C32.704 30.2827 31.5947 35.3387 29.376 43.744C33.2587 38.4533 37.3547 33.5893 41.664 29.152C45.9733 24.672 48.704 22.432 49.856 22.432C50.7093 22.432 51.4987 22.7093 52.224 23.264C52.992 23.8187 53.376 24.3733 53.376 24.928C53.376 25.44 52.352 26.6347 50.304 28.512C48.2987 30.3467 45.5893 32.928 42.176 36.256C38.7627 39.584 35.84 42.912 33.408 46.24C33.408 47.9893 33.8773 49.888 34.816 51.936C36.3093 55.3493 39.3813 58.1867 44.032 60.448C46.0373 61.4293 47.5947 62.2613 48.704 62.944C49.856 63.6267 50.432 64.3307 50.432 65.056C50.432 66.1653 49.6 66.72 47.936 66.72C46.272 66.72 44.5227 66.3787 42.688 65.696C40.8533 64.9707 39.0187 63.968 37.184 62.688C35.3493 61.408 33.664 59.7227 32.128 57.632C30.6347 55.4987 29.6107 53.1733 29.056 50.656C27.7333 53.0027 26.496 56.096 25.344 59.936C23.936 64.4587 23.0827 66.72 22.784 66.72H22.72Z" fill="#1A132B"/>
<path d="M16.352 50C15.296 50 14.32 49.744 13.424 49.232C12.56 48.72 11.872 48.032 11.36 47.168C10.848 46.272 10.592 45.296 10.592 44.24V21.2C10.592 20.144 10.848 19.184 11.36 18.32C11.872 17.424 12.56 16.72 13.424 16.208C14.32 15.696 15.296 15.44 16.352 15.44H39.392C40.448 15.44 41.408 15.696 42.272 16.208C43.168 16.72 43.872 17.424 44.384 18.32C44.896 19.184 45.152 20.144 45.152 21.2V44.24C45.152 45.296 44.896 46.272 44.384 47.168C43.872 48.032 43.168 48.72 42.272 49.232C41.408 49.744 40.448 50 39.392 50H16.352ZM16.352 46.112H39.392C39.904 46.112 40.336 45.936 40.688 45.584C41.072 45.2 41.264 44.752 41.264 44.24V21.2C41.264 20.688 41.072 20.256 40.688 19.904C40.336 19.52 39.904 19.328 39.392 19.328H16.352C15.84 19.328 15.392 19.52 15.008 19.904C14.656 20.256 14.48 20.688 14.48 21.2V44.24C14.48 44.752 14.656 45.2 15.008 45.584C15.392 45.936 15.84 46.112 16.352 46.112Z" fill="#E31BE7"/>
<rect x="0.5" y="12.5" width="59" height="59" rx="3.5" stroke="black"/>
</svg>
