<svg width="1587" height="752" viewBox="0 0 1587 752" fill="none" xmlns="http://www.w3.org/2000/svg">
<path opacity="0.9" fill-rule="evenodd" clip-rule="evenodd" d="M1243.84 0C1247.29 0 1250.5 1.78014 1252.32 4.70919L1288.59 62.8724C1294.07 71.6596 1303.65 77 1314 77H1577C1582.52 77 1587 81.4771 1587 87V721.122C1587 737.69 1573.57 751.122 1557 751.122H1461.14C1460.28 748.515 1459.03 745.952 1457.35 743.497L1412.3 677.433C1406.72 669.238 1397.44 664.335 1387.52 664.335H1104.77C1094.75 664.335 1085.39 669.338 1079.83 677.67L1035.69 743.734C1034.1 746.118 1032.9 748.6 1032.07 751.122H154.194C153.504 751.122 152.951 750.559 152.916 749.87L152.735 746.258C152.303 737.618 158.42 730.028 166.954 728.614C171.454 727.869 175.467 725.349 178.092 721.62L203.167 686C209.516 674.984 195.407 663.65 186.019 672.225L176.135 681.253C167.659 688.995 154.024 682.982 154.024 671.503V631.046C154.024 613.9 140.124 600 122.978 600H21C19.5934 600 18.2037 600.073 16.8345 600.214C9.04424 601.02 0 595.845 0 588.013V564.114C0 563.801 0.18088 563.517 0.464012 563.384L54.7582 537.97C68.8677 531.366 77.8591 517.17 77.8004 501.592L76.2594 92.887C76.1955 75.9296 65.4461 60.8553 49.4348 55.2698L6.70623 40.3643C2.69034 38.9634 0 35.1755 0 30.9223V20.6069C0 9.22603 9.22602 0 20.6069 0H1243.84Z" fill="white"/>
</svg>
