<svg width="846" height="468" viewBox="0 0 846 468" fill="none" xmlns="http://www.w3.org/2000/svg">
<path fill-rule="evenodd" clip-rule="evenodd" d="M835 0C841.075 0 846 4.92487 846 11V358V376.619C846 376.829 845.829 377 845.619 377C845.414 377 845.245 377.162 845.237 377.366L843.546 420.308C843.314 426.21 838.462 430.875 832.555 430.875H776.076C772.269 430.875 768.732 432.844 766.726 436.08L750.167 462.795C748.161 466.031 744.625 468 740.818 468H73.2778C72.9046 467.819 72.4797 467.652 71.9999 467.5C63.8849 464.931 64.6187 459.367 66.9645 454.837C69.3777 450.177 71.0704 444.863 69.5796 439.832C65.9984 427.745 49.6122 426.101 40.9038 435.216C36.4351 439.893 32.5282 441.859 31 436.986V388C31 381.925 26.0751 377 20 377H11C4.92487 377 0 372.075 0 366V11C0 4.92487 4.92487 0 11 0H835Z" fill="white"/>
</svg>
