<svg width="846" height="468" viewBox="0 0 846 468" fill="none" xmlns="http://www.w3.org/2000/svg">
<path fill-rule="evenodd" clip-rule="evenodd" d="M835 0C841.075 0 846 4.92487 846 11V358V364.859C846 364.937 845.937 365 845.859 365C845.818 365 845.781 365.018 845.755 365.046C845.733 365.069 845.719 365.101 845.718 365.135L843.538 420.309C843.304 426.211 838.452 430.875 832.546 430.875H775.794C771.993 430.875 768.461 432.837 766.454 436.065L749.817 462.81C747.809 466.038 744.277 468 740.476 468H75.0645C74.5653 467.182 73.5799 466.5 71.9999 466C64.3714 463.585 64.5625 458.917 66.5615 454.94C68.9906 450.108 71.0196 444.691 69.4831 439.506C65.9607 427.617 49.5653 425.744 42.2358 435.745C36.6076 443.424 31.0788 449.315 28.0996 447.948V376C28.0996 369.925 23.1748 365 17.0996 365H11C4.92486 365 0 360.075 0 354V11C0 4.92487 4.92487 0 11 0H835Z" fill="white"/>
</svg>
