<svg width="327" height="68" viewBox="0 0 327 68" fill="none" xmlns="http://www.w3.org/2000/svg">
<path d="M5.01379 7.72268C2.85418 4.39627 5.24151 0 9.20747 0H317C322.523 0 327 4.47715 327 10V58C327 63.5228 322.523 68 317 68H60.4387C50.2786 68 40.809 62.8576 35.2765 54.336L5.01379 7.72268Z" fill="#B95050"/>
<path d="M24.1823 16.7735C21.9672 13.4507 24.3491 9 28.3426 9H95C98.3137 9 101 11.6863 101 15V51C101 54.3137 98.3137 57 95 57H59.5629C54.2133 57 49.2176 54.3264 46.2501 49.8752L24.1823 16.7735Z" fill="white"/>
<path d="M134.096 33.176L137.696 28.088C138.336 27.176 139.032 26.664 139.784 26.552C140.536 26.424 141.216 26.6 141.824 27.08C142.224 27.384 142.488 27.792 142.616 28.304C142.744 28.816 142.704 29.36 142.496 29.936C142.288 30.512 141.872 31.056 141.248 31.568L137.24 34.808V35.312C137.752 35.312 138.352 35.376 139.04 35.504C139.728 35.632 140.352 35.92 140.912 36.368C141.36 36.704 141.744 37.088 142.064 37.52C142.4 37.952 142.664 38.488 142.856 39.128C143.048 39.752 143.144 40.544 143.144 41.504C143.144 42.288 142.928 42.92 142.496 43.4C142.08 43.864 141.456 44.096 140.624 44.096C139.792 44.096 139.152 43.864 138.704 43.4C138.272 42.92 138.056 42.288 138.056 41.504C138.056 40.624 137.912 39.928 137.624 39.416C137.352 38.888 136.984 38.504 136.52 38.264C136.056 38.024 135.552 37.904 135.008 37.904H133.832V41.672C133.832 42.36 133.592 42.928 133.112 43.376C132.648 43.824 132.048 44.048 131.312 44.048C130.576 44.048 129.968 43.824 129.488 43.376C129.024 42.928 128.792 42.36 128.792 41.672V28.976C128.792 28.272 129.024 27.68 129.488 27.2C129.952 26.72 130.56 26.48 131.312 26.48C132.112 26.48 132.728 26.72 133.16 27.2C133.608 27.664 133.832 28.24 133.832 28.928V33.128L134.096 33.176ZM146.181 44C145.109 43.84 144.413 43.352 144.093 42.536C143.773 41.704 143.837 40.656 144.285 39.392L147.453 30.392C147.741 29.56 148.069 28.848 148.437 28.256C148.821 27.664 149.293 27.208 149.853 26.888C150.429 26.568 151.141 26.408 151.989 26.408C153.269 26.408 154.229 26.76 154.869 27.464C155.525 28.168 156.069 29.144 156.501 30.392L159.645 39.392C160.093 40.656 160.173 41.704 159.885 42.536C159.613 43.352 158.933 43.84 157.845 44C156.965 44.112 156.197 44.008 155.541 43.688C154.901 43.368 154.517 42.848 154.389 42.128C154.293 41.648 154.277 41.248 154.341 40.928C154.421 40.608 154.493 40.352 154.557 40.16C154.605 40 154.605 39.848 154.557 39.704C154.525 39.544 154.405 39.464 154.197 39.464H149.733C149.525 39.464 149.397 39.544 149.349 39.704C149.317 39.848 149.333 40 149.397 40.16C149.461 40.352 149.525 40.608 149.589 40.928C149.653 41.248 149.645 41.648 149.565 42.128C149.437 42.848 149.061 43.368 148.437 43.688C147.813 44.008 147.061 44.112 146.181 44ZM153.741 36.104L152.493 32.192C152.461 32.032 152.405 31.912 152.325 31.832C152.261 31.736 152.149 31.688 151.989 31.688C151.829 31.688 151.709 31.736 151.629 31.832C151.565 31.912 151.509 32.032 151.461 32.192L150.237 36.104H153.741ZM165.076 44C162.164 44 160.708 41.856 160.708 37.568C160.708 35.712 161.068 34.232 161.788 33.128C162.508 32.008 163.588 31.448 165.028 31.448C165.812 31.448 166.444 31.608 166.924 31.928C167.42 32.248 167.804 32.688 168.076 33.248C168.364 33.792 168.572 34.424 168.7 35.144L168.772 35.12V27.848C168.772 27.192 168.964 26.64 169.348 26.192C169.748 25.728 170.324 25.496 171.076 25.496C171.812 25.496 172.356 25.728 172.708 26.192C173.076 26.64 173.26 27.208 173.26 27.896V38.696C173.26 39.24 173.3 39.744 173.38 40.208C173.476 40.656 173.548 41.104 173.596 41.552C173.644 42.16 173.516 42.688 173.212 43.136C172.924 43.568 172.404 43.848 171.652 43.976C170.676 44.136 169.948 43.968 169.468 43.472C169.004 42.976 168.772 42.24 168.772 41.264V40.376H168.316C168.316 41.544 168.02 42.44 167.428 43.064C166.852 43.688 166.068 44 165.076 44ZM164.716 37.352C164.716 37.848 164.868 38.216 165.172 38.456C165.476 38.696 166.02 38.816 166.804 38.816C167.604 38.816 168.156 38.696 168.46 38.456C168.764 38.216 168.916 37.848 168.916 37.352C168.916 36.84 168.764 36.472 168.46 36.248C168.172 36.008 167.628 35.888 166.828 35.888C166.028 35.888 165.476 36.008 165.172 36.248C164.868 36.472 164.716 36.84 164.716 37.352ZM179.022 44C176.11 44 174.654 41.856 174.654 37.568C174.654 35.712 175.014 34.232 175.734 33.128C176.454 32.008 177.534 31.448 178.974 31.448C179.758 31.448 180.39 31.608 180.87 31.928C181.366 32.248 181.75 32.688 182.022 33.248C182.31 33.792 182.518 34.424 182.646 35.144L182.718 35.12V27.848C182.718 27.192 182.91 26.64 183.294 26.192C183.694 25.728 184.27 25.496 185.022 25.496C185.758 25.496 186.302 25.728 186.654 26.192C187.022 26.64 187.206 27.208 187.206 27.896V38.696C187.206 39.24 187.246 39.744 187.326 40.208C187.422 40.656 187.494 41.104 187.542 41.552C187.59 42.16 187.462 42.688 187.158 43.136C186.87 43.568 186.35 43.848 185.598 43.976C184.622 44.136 183.894 43.968 183.414 43.472C182.95 42.976 182.718 42.24 182.718 41.264V40.376H182.262C182.262 41.544 181.966 42.44 181.374 43.064C180.798 43.688 180.014 44 179.022 44ZM178.662 37.352C178.662 37.848 178.814 38.216 179.118 38.456C179.422 38.696 179.966 38.816 180.75 38.816C181.55 38.816 182.102 38.696 182.406 38.456C182.71 38.216 182.862 37.848 182.862 37.352C182.862 36.84 182.71 36.472 182.406 36.248C182.118 36.008 181.574 35.888 180.774 35.888C179.974 35.888 179.422 36.008 179.118 36.248C178.814 36.472 178.662 36.84 178.662 37.352ZM192.535 44C191.415 44 190.503 43.576 189.799 42.728C189.095 41.88 188.735 40.688 188.719 39.152L188.695 33.608C188.695 32.92 188.903 32.384 189.319 32C189.751 31.6 190.335 31.4 191.071 31.4C191.775 31.4 192.343 31.6 192.775 32C193.207 32.384 193.423 32.92 193.423 33.608V38.624C193.423 39.824 193.895 40.424 194.839 40.424C195.303 40.424 195.615 40.256 195.775 39.92C195.935 39.568 196.015 39.12 196.015 38.576V33.608C196.015 32.984 196.231 32.464 196.663 32.048C197.095 31.616 197.655 31.4 198.343 31.4C199.063 31.4 199.615 31.616 199.999 32.048C200.399 32.464 200.599 32.984 200.599 33.608V41.48C200.599 42.248 200.423 42.864 200.071 43.328C199.735 43.776 199.183 44 198.415 44C197.663 44 197.071 43.776 196.639 43.328C196.223 42.864 196.015 42.248 196.015 41.48V41.072H195.583C195.583 42 195.303 42.72 194.743 43.232C194.199 43.744 193.463 44 192.535 44ZM204.099 44C203.315 44 202.723 43.792 202.323 43.376C201.939 42.96 201.747 42.44 201.747 41.816V27.896C201.747 27.208 201.939 26.64 202.323 26.192C202.723 25.728 203.315 25.496 204.099 25.496C204.803 25.496 205.347 25.728 205.731 26.192C206.115 26.64 206.307 27.192 206.307 27.848V41.816C206.307 42.44 206.115 42.96 205.731 43.376C205.347 43.792 204.803 44 204.099 44ZM207.724 28.664C207.724 27.976 207.932 27.424 208.348 27.008C208.78 26.576 209.372 26.36 210.124 26.36C210.924 26.36 211.516 26.568 211.9 26.984C212.3 27.4 212.5 27.952 212.5 28.64C212.5 29.312 212.3 29.856 211.9 30.272C211.516 30.672 210.924 30.872 210.124 30.872C209.34 30.872 208.74 30.672 208.324 30.272C207.924 29.856 207.724 29.32 207.724 28.664ZM210.124 44C209.372 44 208.812 43.792 208.444 43.376C208.076 42.96 207.892 42.44 207.892 41.816V33.608C207.892 32.92 208.076 32.376 208.444 31.976C208.812 31.576 209.372 31.376 210.124 31.376C210.876 31.376 211.436 31.576 211.804 31.976C212.188 32.376 212.38 32.904 212.38 33.56V41.816C212.38 42.44 212.18 42.96 211.78 43.376C211.396 43.792 210.844 44 210.124 44ZM219.943 44C218.903 44 218.015 43.696 217.279 43.088C216.543 42.48 215.935 41.472 215.455 40.064L213.559 34.592C213.303 33.872 213.303 33.208 213.559 32.6C213.831 31.992 214.327 31.608 215.047 31.448C215.687 31.304 216.247 31.368 216.727 31.64C217.223 31.912 217.575 32.368 217.783 33.008L219.655 38.504C219.879 39.144 220.151 39.616 220.471 39.92C220.807 40.224 221.215 40.296 221.695 40.136C222.143 39.96 222.383 39.672 222.415 39.272C222.463 38.856 222.375 38.376 222.151 37.832C221.959 37.336 221.703 36.912 221.383 36.56C221.063 36.208 220.775 35.84 220.519 35.456C220.263 35.072 220.135 34.592 220.135 34.016C220.135 33.184 220.399 32.536 220.927 32.072C221.471 31.592 222.183 31.368 223.063 31.4C223.815 31.416 224.431 31.68 224.911 32.192C225.391 32.704 225.631 33.352 225.631 34.136C225.631 34.568 225.559 35.032 225.415 35.528C225.271 36.024 225.111 36.544 224.935 37.088L223.975 40.112C223.719 40.912 223.431 41.608 223.111 42.2C222.807 42.776 222.407 43.224 221.911 43.544C221.431 43.848 220.775 44 219.943 44ZM226.029 37.76C226.029 36.496 226.277 35.384 226.773 34.424C227.285 33.464 228.005 32.712 228.933 32.168C229.877 31.624 230.997 31.352 232.293 31.352C233.301 31.352 234.205 31.536 235.005 31.904C235.821 32.272 236.461 32.768 236.925 33.392C237.389 34 237.621 34.672 237.621 35.408C237.621 36.176 237.397 36.72 236.949 37.04C236.501 37.36 235.837 37.52 234.957 37.52H229.917C229.917 37.936 230.077 38.28 230.397 38.552C230.733 38.824 231.293 38.96 232.077 38.96C232.477 38.96 232.845 38.92 233.181 38.84C233.533 38.76 233.885 38.688 234.237 38.624C234.605 38.544 235.013 38.504 235.461 38.504C236.101 38.504 236.629 38.736 237.045 39.2C237.461 39.648 237.669 40.272 237.669 41.072C237.669 42.016 237.181 42.752 236.205 43.28C235.245 43.808 233.981 44.072 232.413 44.072C231.309 44.072 230.269 43.856 229.293 43.424C228.333 42.992 227.549 42.312 226.941 41.384C226.333 40.44 226.029 39.232 226.029 37.76ZM233.805 36.728C234.045 36.728 234.125 36.616 234.045 36.392C233.981 36.168 233.789 35.936 233.469 35.696C233.149 35.456 232.685 35.336 232.077 35.336C231.373 35.336 230.845 35.488 230.493 35.792C230.157 36.096 229.989 36.408 229.989 36.728H233.805ZM246.221 40.688C245.229 40.688 244.445 40.416 243.869 39.872C243.309 39.328 243.029 38.56 243.029 37.568C243.029 36.592 243.357 35.888 244.013 35.456C244.669 35.008 245.509 34.784 246.533 34.784C247.141 34.784 247.685 34.84 248.165 34.952C248.661 35.048 249.101 35.208 249.485 35.432L249.533 35.408V34.976C249.533 34.56 249.421 34.24 249.197 34.016C248.973 33.776 248.677 33.664 248.309 33.68C247.973 33.68 247.685 33.744 247.445 33.872C247.205 33.984 246.917 34.08 246.581 34.16C245.925 34.32 245.357 34.328 244.877 34.184C244.413 34.04 244.077 33.68 243.869 33.104C243.693 32.544 243.725 32.048 243.965 31.616C244.221 31.184 244.597 30.864 245.093 30.656C245.509 30.448 245.981 30.28 246.509 30.152C247.053 30.024 247.621 29.96 248.213 29.96C250.005 29.96 251.317 30.392 252.149 31.256C252.997 32.104 253.421 33.544 253.421 35.576V37.568C253.885 37.568 254.309 37.44 254.693 37.184C255.093 36.928 255.293 36.432 255.293 35.696C255.293 34.752 255.229 33.864 255.101 33.032C254.973 32.2 254.685 31.464 254.237 30.824C253.805 30.168 253.117 29.664 252.173 29.312C251.245 28.944 249.973 28.76 248.357 28.76C246.741 28.76 245.437 28.944 244.445 29.312C243.453 29.68 242.693 30.192 242.165 30.848C241.637 31.504 241.277 32.272 241.085 33.152C240.893 34.016 240.797 34.952 240.797 35.96C240.797 37.976 241.293 39.448 242.285 40.376C243.277 41.288 244.933 41.744 247.253 41.744H249.245C250.589 41.744 251.525 41.864 252.053 42.104C252.597 42.328 252.869 42.784 252.869 43.472C252.869 43.936 252.741 44.304 252.485 44.576C252.245 44.848 251.813 45.04 251.189 45.152C250.581 45.264 249.717 45.32 248.597 45.32C247.045 45.32 245.725 45.104 244.637 44.672C243.549 44.256 242.661 43.704 241.973 43.016C241.285 42.312 240.749 41.536 240.365 40.688C239.981 39.824 239.709 38.96 239.549 38.096C239.405 37.232 239.333 36.432 239.333 35.696C239.333 35.056 239.389 34.32 239.501 33.488C239.613 32.656 239.837 31.816 240.173 30.968C240.509 30.104 241.013 29.312 241.685 28.592C242.357 27.856 243.245 27.264 244.349 26.816C245.453 26.368 246.829 26.144 248.477 26.144C250.093 26.144 251.429 26.384 252.485 26.864C253.557 27.328 254.413 27.936 255.053 28.688C255.693 29.44 256.165 30.264 256.469 31.16C256.789 32.056 256.989 32.936 257.069 33.8C257.149 34.648 257.173 35.4 257.141 36.056C257.029 37.592 256.605 38.752 255.869 39.536C255.133 40.304 254.133 40.688 252.869 40.688H251.501C250.861 40.688 250.373 40.512 250.037 40.16C249.701 39.792 249.533 39.336 249.533 38.792V38.336H249.149C249.149 38.688 249.085 39.048 248.957 39.416C248.829 39.768 248.557 40.072 248.141 40.328C247.725 40.568 247.085 40.688 246.221 40.688ZM246.461 36.224C246.461 36.448 246.541 36.608 246.701 36.704C246.861 36.8 247.229 36.848 247.805 36.848C248.317 36.848 248.677 36.8 248.885 36.704C249.093 36.608 249.197 36.448 249.197 36.224C249.197 36 249.093 35.848 248.885 35.768C248.677 35.672 248.317 35.624 247.805 35.624C247.229 35.624 246.861 35.672 246.701 35.768C246.541 35.848 246.461 36 246.461 36.224ZM265.846 44.072C264.246 44.072 262.942 43.712 261.934 42.992C260.926 42.272 260.182 41.248 259.702 39.92C259.238 38.592 259.006 37.032 259.006 35.24C259.006 33.448 259.254 31.896 259.75 30.584C260.262 29.256 261.022 28.224 262.03 27.488C263.038 26.752 264.31 26.384 265.846 26.384C267.382 26.384 268.654 26.752 269.662 27.488C270.686 28.224 271.446 29.256 271.942 30.584C272.454 31.896 272.71 33.448 272.71 35.24C272.71 37.032 272.47 38.592 271.99 39.92C271.526 41.248 270.79 42.272 269.782 42.992C268.774 43.712 267.462 44.072 265.846 44.072ZM261.694 34.904C261.694 35.4 261.798 35.872 262.006 36.32C262.23 36.752 262.638 37.104 263.23 37.376C263.838 37.632 264.71 37.76 265.846 37.76C266.998 37.76 267.87 37.632 268.462 37.376C269.07 37.104 269.478 36.752 269.686 36.32C269.91 35.872 270.022 35.4 270.022 34.904C270.022 34.392 269.91 33.936 269.686 33.536C269.478 33.12 269.07 32.792 268.462 32.552C267.87 32.296 266.998 32.168 265.846 32.168C264.71 32.168 263.838 32.296 263.23 32.552C262.638 32.792 262.23 33.12 262.006 33.536C261.798 33.936 261.694 34.392 261.694 34.904Z" fill="white"/>
</svg>
