<svg width="212" height="47" viewBox="0 0 212 47" fill="none" xmlns="http://www.w3.org/2000/svg">
<path d="M0 7C0 3.13401 3.13401 0 7 0H166.311C167.071 0 167.553 0.814406 167.188 1.48083L142.784 45.9829C142.609 46.302 142.274 46.5008 141.91 46.5021L7.02455 46.9754C3.14898 46.989 0 43.851 0 39.9754V7Z" fill="#D9D9D9"/>
<path d="M172.715 0.519165C172.891 0.19901 173.227 0 173.592 0H203.793C207.538 0 209.953 3.96536 208.236 7.29322L192.191 38.3796C189.617 43.3669 184.474 46.5 178.862 46.5H149.189C148.429 46.5 147.947 45.6856 148.312 45.0192L172.715 0.519165Z" fill="#D9D9D9"/>
</svg>
