<svg width="817" height="425" viewBox="0 0 817 425" fill="none" xmlns="http://www.w3.org/2000/svg">
<path fill-rule="evenodd" clip-rule="evenodd" d="M11 0C4.92487 0 0 4.92487 0 11V414C0 420.075 4.92489 425 11 425H806C812.075 425 817 420.075 817 414V11C817 4.92487 812.075 0 806 0H11ZM49.253 347.922C45.0936 347.922 42.7527 352.705 45.3044 355.989L69.1378 386.669C70.085 387.889 71.5425 388.602 73.0864 388.602H737.117C738.823 388.602 740.41 387.733 741.329 386.296L760.957 355.616C763.086 352.288 760.696 347.922 756.745 347.922H49.253Z" fill="white"/>
</svg>
